<?xml version="1.0" encoding="utf-8"?>
<!-- Generator: Adobe Illustrator 17.0.0, SVG Export Plug-In . SVG Version: 6.00 Build 0)  -->
<!DOCTYPE svg PUBLIC "-//W3C//DTD SVG 1.1//EN" "http://www.w3.org/Graphics/SVG/1.1/DTD/svg11.dtd">
<svg version="1.1" id="Layer_1" xmlns="http://www.w3.org/2000/svg" xmlns:xlink="http://www.w3.org/1999/xlink" x="0px" y="0px"
	 width="132px" height="55px" viewBox="0 0 132 55" enable-background="new 0 0 132 55" xml:space="preserve">
<g>
	<path fill="#29A9E1" d="M41.678,35.686v-8.409c0-0.913,0.052-1.626,0.155-2.141c0.103-0.515,0.275-0.976,0.515-1.384
		c0.421-0.712,0.972-1.261,1.656-1.646c0.683-0.385,1.445-0.578,2.287-0.578c1.262,0,2.34,0.442,3.233,1.325s1.34,1.947,1.34,3.19
		c0,1.282-0.442,2.348-1.325,3.199c-0.884,0.851-1.999,1.277-3.345,1.277h-1.971v-1.757h1.728c0.919,0,1.652-0.252,2.199-0.757
		c0.547-0.505,0.82-1.172,0.82-2c0-0.77-0.262-1.418-0.786-1.942c-0.524-0.524-1.169-0.787-1.932-0.787
		c-0.842,0-1.507,0.282-1.995,0.845c-0.489,0.563-0.733,1.33-0.733,2.301v9.263H41.678z"/>
	<path fill="#29A9E1" d="M51.766,35.686v-9.525h1.573v1.408c0.291-0.557,0.693-0.96,1.204-1.209
		c0.511-0.249,1.201-0.374,2.068-0.374h0.447v1.651h-0.262c-1.172,0-2.018,0.278-2.539,0.835c-0.521,0.557-0.782,1.463-0.782,2.719
		v4.496H51.766z"/>
	<path fill="#29A9E1" d="M57.65,30.909c0-0.66,0.123-1.288,0.369-1.884c0.246-0.596,0.602-1.133,1.068-1.612
		c0.46-0.466,0.976-0.82,1.549-1.063c0.573-0.243,1.183-0.364,1.83-0.364c0.647,0,1.262,0.121,1.845,0.364
		c0.583,0.243,1.1,0.597,1.554,1.063c0.46,0.466,0.811,1,1.054,1.602s0.364,1.233,0.364,1.893c0,0.673-0.121,1.312-0.364,1.918
		c-0.243,0.605-0.594,1.141-1.054,1.607c-0.453,0.466-0.971,0.82-1.554,1.063c-0.583,0.243-1.198,0.364-1.845,0.364
		c-0.647,0-1.257-0.121-1.83-0.364c-0.573-0.243-1.089-0.597-1.549-1.063c-0.466-0.473-0.822-1.01-1.068-1.612
		C57.773,32.22,57.65,31.582,57.65,30.909z M59.427,30.89c0,0.926,0.296,1.711,0.888,2.355c0.592,0.644,1.309,0.966,2.151,0.966
		c0.841,0,1.558-0.322,2.151-0.966c0.592-0.644,0.888-1.429,0.888-2.355c0-0.919-0.295-1.699-0.884-2.34
		c-0.589-0.641-1.308-0.961-2.156-0.961c-0.842,0-1.558,0.32-2.151,0.961C59.723,29.191,59.427,29.971,59.427,30.89z"/>
	<path fill="#29A9E1" d="M68.933,23.636h1.709v2.525h2.884v1.612h-2.884v4.078c0,0.764,0.186,1.322,0.558,1.675
		c0.372,0.353,0.966,0.529,1.782,0.529h0.544v1.631h-0.563c-1.346,0-2.355-0.295-3.025-0.884s-1.005-1.476-1.005-2.661V23.636z"/>
	<path fill="#29A9E1" d="M74.73,30.909c0-0.66,0.123-1.288,0.369-1.884c0.246-0.596,0.602-1.133,1.068-1.612
		c0.46-0.466,0.976-0.82,1.549-1.063c0.573-0.243,1.183-0.364,1.83-0.364c0.647,0,1.262,0.121,1.845,0.364
		c0.583,0.243,1.1,0.597,1.554,1.063c0.46,0.466,0.811,1,1.054,1.602c0.243,0.602,0.364,1.233,0.364,1.893
		c0,0.673-0.121,1.312-0.364,1.918c-0.243,0.605-0.594,1.141-1.054,1.607c-0.453,0.466-0.971,0.82-1.554,1.063
		c-0.583,0.243-1.198,0.364-1.845,0.364c-0.647,0-1.257-0.121-1.83-0.364c-0.573-0.243-1.089-0.597-1.549-1.063
		c-0.466-0.473-0.822-1.01-1.068-1.612C74.853,32.22,74.73,31.582,74.73,30.909z M76.507,30.89c0,0.926,0.296,1.711,0.888,2.355
		c0.592,0.644,1.309,0.966,2.151,0.966c0.841,0,1.558-0.322,2.151-0.966c0.592-0.644,0.888-1.429,0.888-2.355
		c0-0.919-0.295-1.699-0.884-2.34c-0.589-0.641-1.308-0.961-2.156-0.961c-0.842,0-1.558,0.32-2.151,0.961
		C76.803,29.191,76.507,29.971,76.507,30.89z"/>
	<path fill="#29A9E1" d="M85.984,35.686v-5.195c0-1.385,0.369-2.482,1.107-3.292c0.738-0.809,1.722-1.214,2.952-1.214
		c1.23,0,2.21,0.405,2.942,1.214c0.731,0.809,1.097,1.906,1.097,3.292v5.195h-1.69v-5.506c0-0.751-0.218-1.363-0.655-1.835
		s-1.002-0.709-1.694-0.709c-0.686,0-1.251,0.236-1.694,0.709c-0.443,0.473-0.665,1.084-0.665,1.835v5.506H85.984z"/>
	<path fill="#E5415C" d="M96.276,35.686V26.86c0-1.664,0.396-2.965,1.189-3.903c0.793-0.939,1.889-1.408,3.287-1.408
		c1.23,0,2.262,0.372,3.097,1.117s1.253,1.651,1.253,2.719c0,0.589-0.131,1.121-0.393,1.597c-0.262,0.476-0.655,0.892-1.18,1.248
		c0.706,0.304,1.254,0.754,1.646,1.35c0.392,0.596,0.587,1.272,0.587,2.029c0,1.211-0.429,2.193-1.287,2.947
		c-0.858,0.754-1.989,1.131-3.394,1.131h-2.282v-1.748h2.301c0.842,0,1.503-0.212,1.986-0.636c0.482-0.424,0.723-1.002,0.723-1.733
		c0-0.706-0.243-1.267-0.728-1.685c-0.485-0.418-1.146-0.626-1.981-0.626h-2.301v-1.67h1.631c0.861,0,1.544-0.189,2.049-0.568
		s0.757-0.892,0.757-1.539c0-0.654-0.227-1.191-0.68-1.612c-0.453-0.421-1.036-0.631-1.748-0.631c-0.848,0-1.512,0.275-1.991,0.825
		c-0.479,0.55-0.719,1.314-0.719,2.292v9.331H96.276z"/>
	<path fill="#E5415C" d="M106.948,30.909c0-0.66,0.123-1.288,0.369-1.884c0.246-0.596,0.602-1.133,1.068-1.612
		c0.46-0.466,0.976-0.82,1.549-1.063c0.573-0.243,1.183-0.364,1.83-0.364c0.647,0,1.262,0.121,1.845,0.364
		c0.583,0.243,1.1,0.597,1.554,1.063c0.46,0.466,0.811,1,1.054,1.602s0.364,1.233,0.364,1.893c0,0.673-0.121,1.312-0.364,1.918
		c-0.243,0.605-0.594,1.141-1.054,1.607c-0.453,0.466-0.971,0.82-1.554,1.063c-0.583,0.243-1.198,0.364-1.845,0.364
		c-0.647,0-1.257-0.121-1.83-0.364c-0.573-0.243-1.089-0.597-1.549-1.063c-0.466-0.473-0.822-1.01-1.068-1.612
		C107.071,32.22,106.948,31.582,106.948,30.909z M108.725,30.89c0,0.926,0.296,1.711,0.888,2.355
		c0.592,0.644,1.309,0.966,2.151,0.966s1.558-0.322,2.151-0.966c0.592-0.644,0.888-1.429,0.888-2.355
		c0-0.919-0.295-1.699-0.884-2.34c-0.589-0.641-1.308-0.961-2.156-0.961c-0.842,0-1.558,0.32-2.151,0.961
		C109.021,29.191,108.725,29.971,108.725,30.89z"/>
	<path fill="#E5415C" d="M117.395,26.161h0.33c0.835,0,1.57,0.181,2.204,0.544c0.634,0.363,1.175,0.909,1.622,1.641
		c0.453-0.738,0.994-1.287,1.622-1.646c0.628-0.359,1.353-0.539,2.175-0.539h0.34l-0.01,1.631c-1.01,0.013-1.819,0.306-2.427,0.879
		c-0.608,0.573-0.913,1.329-0.913,2.267c0,0.926,0.306,1.675,0.918,2.248s1.419,0.869,2.423,0.888l0.01,1.612h-0.223
		c-0.867,0-1.62-0.176-2.258-0.529c-0.638-0.353-1.189-0.898-1.656-1.636c-0.46,0.731-1.013,1.275-1.66,1.631
		c-0.647,0.356-1.408,0.534-2.282,0.534h-0.214v-1.612c1.01-0.019,1.822-0.317,2.437-0.893c0.615-0.576,0.922-1.324,0.922-2.243
		c0-0.939-0.306-1.694-0.918-2.267s-1.426-0.866-2.442-0.879V26.161z"/>
</g>
<path fill="#E5415C" d="M7.915,30.123c0.48,2.397,1.596,4.489,3.438,6.342c2.084,2.065,4.501,3.281,7.312,3.586
	c0.484,0.062,0.967,0.093,1.481,0.094l12.727,0.015l-0.015-13.01c-0.086-3.306-1.292-6.158-3.678-8.527
	c-2.205-2.215-4.773-3.431-7.765-3.678c-0.242,0-0.484-0.031-0.726-0.031L7.691,14.868l0.014,13.768
	c0.03,0.273,0.06,0.486,0.089,0.728C7.824,29.638,7.854,29.881,7.915,30.123z M12.54,29.37c-0.03-0.152-0.09-0.304-0.09-0.455
	c-0.03-0.182-0.06-0.334-0.06-0.485l0.01-8.796l8.283,0.01c0.181,0,0.333,0.001,0.484,0.001c1.905,0.184,3.566,0.944,4.955,2.371
	c1.51,1.519,2.294,3.339,2.352,5.462l0.02,8.34l-8.132-0.01c-0.363,0-0.665-0.031-0.997-0.092c-1.783-0.214-3.325-0.974-4.653-2.28
	C13.566,32.252,12.841,30.886,12.54,29.37z"/>
<path fill="#29A9E1" d="M22.725,26.165c0.042-1.131-0.317-2.091-1.077-2.913c-0.744-0.804-1.829-1.339-3.254-1.636l-4.755-0.972
	l0.616,4.434c0.026,0.179,0.068,0.359,0.093,0.538c0.262,1.394,0.715,2.456,1.367,3.159c0.744,0.806,1.671,1.237,2.75,1.293
	c0.033,0.001,0.033,0.001,0.065,0.003c1.128,0.042,2.085-0.318,2.904-1.08C22.253,28.227,22.683,27.297,22.725,26.165z"/>
</svg>
