<?xml version="1.0" encoding="UTF-8" standalone="no"?>
<!-- Generator: Adobe Illustrator 14.0.0, SVG Export Plug-In . SVG Version: 6.00 Build 43363)  -->

<svg
   xmlns:dc="http://purl.org/dc/elements/1.1/"
   xmlns:cc="http://creativecommons.org/ns#"
   xmlns:rdf="http://www.w3.org/1999/02/22-rdf-syntax-ns#"
   xmlns:svg="http://www.w3.org/2000/svg"
   xmlns="http://www.w3.org/2000/svg"
   xmlns:sodipodi="http://sodipodi.sourceforge.net/DTD/sodipodi-0.dtd"
   xmlns:inkscape="http://www.inkscape.org/namespaces/inkscape"
   version="1.1"
   id="Layer_1"
   x="0px"
   y="0px"
   width="352px"
   height="384px"
   viewBox="0 0 352 384"
   enable-background="new 0 0 352 384"
   xml:space="preserve"
   inkscape:version="0.48.2 r9819"
   sodipodi:docname="gear-group.svg"><metadata
   id="metadata3195"><rdf:RDF><cc:Work
       rdf:about=""><dc:format>image/svg+xml</dc:format><dc:type
         rdf:resource="http://purl.org/dc/dcmitype/StillImage" /><dc:title></dc:title></cc:Work></rdf:RDF></metadata><defs
   id="defs3193" /><sodipodi:namedview
   pagecolor="#ffffff"
   bordercolor="#666666"
   borderopacity="1"
   objecttolerance="10"
   gridtolerance="10"
   guidetolerance="10"
   inkscape:pageopacity="0"
   inkscape:pageshadow="2"
   inkscape:window-width="1274"
   inkscape:window-height="964"
   id="namedview3191"
   showgrid="false"
   inkscape:zoom="1.9765625"
   inkscape:cx="176"
   inkscape:cy="171.76285"
   inkscape:window-x="1657"
   inkscape:window-y="10"
   inkscape:window-maximized="0"
   inkscape:current-layer="Layer_1" />
<g
   display="none"
   id="g3111">
	<line
   display="inline"
   fill="none"
   stroke="#B35047"
   x1="32"
   y1="0"
   x2="32"
   y2="512"
   id="line3113" />
	<line
   display="inline"
   fill="none"
   stroke="#B35047"
   x1="64"
   y1="0"
   x2="64"
   y2="512"
   id="line3115" />
	<line
   display="inline"
   fill="none"
   stroke="#B35047"
   x1="96"
   y1="0"
   x2="96"
   y2="512"
   id="line3117" />
	<line
   display="inline"
   fill="none"
   stroke="#B35047"
   x1="128"
   y1="0"
   x2="128"
   y2="512"
   id="line3119" />
	<line
   display="inline"
   fill="none"
   stroke="#B35047"
   x1="160"
   y1="0"
   x2="160"
   y2="512"
   id="line3121" />
	<line
   display="inline"
   fill="none"
   stroke="#B35047"
   x1="192"
   y1="0"
   x2="192"
   y2="512"
   id="line3123" />
	<line
   display="inline"
   fill="none"
   stroke="#B35047"
   x1="224"
   y1="0"
   x2="224"
   y2="512"
   id="line3125" />
	<line
   display="inline"
   fill="none"
   stroke="#B35047"
   x1="256"
   y1="0"
   x2="256"
   y2="512"
   id="line3127" />
	<line
   display="inline"
   fill="none"
   stroke="#B35047"
   x1="288"
   y1="0"
   x2="288"
   y2="512"
   id="line3129" />
	<line
   display="inline"
   fill="none"
   stroke="#B35047"
   x1="320"
   y1="0"
   x2="320"
   y2="512"
   id="line3131" />
	<line
   display="inline"
   fill="none"
   stroke="#B35047"
   x1="352"
   y1="0"
   x2="352"
   y2="512"
   id="line3133" />
	<line
   display="inline"
   fill="none"
   stroke="#B35047"
   x1="384"
   y1="0"
   x2="384"
   y2="512"
   id="line3135" />
	<line
   display="inline"
   fill="none"
   stroke="#B35047"
   x1="416"
   y1="0"
   x2="416"
   y2="512"
   id="line3137" />
	<line
   display="inline"
   fill="none"
   stroke="#B35047"
   x1="448"
   y1="0"
   x2="448"
   y2="512"
   id="line3139" />
	<line
   display="inline"
   fill="none"
   stroke="#B35047"
   x1="480"
   y1="0"
   x2="480"
   y2="512"
   id="line3141" />
	<line
   display="inline"
   fill="none"
   stroke="#B35047"
   x1="0"
   y1="32"
   x2="512"
   y2="32"
   id="line3143" />
	<line
   display="inline"
   fill="none"
   stroke="#B35047"
   x1="0"
   y1="64"
   x2="512"
   y2="64"
   id="line3145" />
	<line
   display="inline"
   fill="none"
   stroke="#B35047"
   x1="0"
   y1="96"
   x2="512"
   y2="96"
   id="line3147" />
	<line
   display="inline"
   fill="none"
   stroke="#B35047"
   x1="0"
   y1="128"
   x2="512"
   y2="128"
   id="line3149" />
	<line
   display="inline"
   fill="none"
   stroke="#B35047"
   x1="0"
   y1="160"
   x2="512"
   y2="160"
   id="line3151" />
	<line
   display="inline"
   fill="none"
   stroke="#B35047"
   x1="0"
   y1="192"
   x2="512"
   y2="192"
   id="line3153" />
	<line
   display="inline"
   fill="none"
   stroke="#B35047"
   x1="0"
   y1="224"
   x2="512"
   y2="224"
   id="line3155" />
	<line
   display="inline"
   fill="none"
   stroke="#B35047"
   x1="0"
   y1="256"
   x2="512"
   y2="256"
   id="line3157" />
	<line
   display="inline"
   fill="none"
   stroke="#B35047"
   x1="0"
   y1="288"
   x2="512"
   y2="288"
   id="line3159" />
	<line
   display="inline"
   fill="none"
   stroke="#B35047"
   x1="0"
   y1="320"
   x2="512"
   y2="320"
   id="line3161" />
	<line
   display="inline"
   fill="none"
   stroke="#B35047"
   x1="0"
   y1="352"
   x2="512"
   y2="352"
   id="line3163" />
	<line
   display="inline"
   fill="none"
   stroke="#B35047"
   x1="0"
   y1="384"
   x2="512"
   y2="384"
   id="line3165" />
	<line
   display="inline"
   fill="none"
   stroke="#B35047"
   x1="0"
   y1="416"
   x2="512"
   y2="416"
   id="line3167" />
	<line
   display="inline"
   fill="none"
   stroke="#B35047"
   x1="0"
   y1="448"
   x2="512"
   y2="448"
   id="line3169" />
	<line
   display="inline"
   fill="none"
   stroke="#B35047"
   x1="0"
   y1="480"
   x2="512"
   y2="480"
   id="line3171" />
	<rect
   display="inline"
   fill="none"
   stroke="#B35047"
   width="512"
   height="512"
   id="rect3173" />
</g>
<g
   id="g3175">
	<path
   d="M340.25,11.75C332.417,3.917,323,0,312,0H40C29,0,19.583,3.917,11.75,11.75S0,29,0,40v304c0,11,3.917,20.416,11.75,28.25   S29,384,40,384h272c11,0,20.417-3.916,28.25-11.75S352,355,352,344V40C352,29,348.083,19.583,340.25,11.75z M320,344   c0,2.166-0.792,4.041-2.375,5.625S314.167,352,312,352H40c-2.167,0-4.042-0.791-5.625-2.375S32,346.166,32,344V40   c0-2.167,0.792-4.042,2.375-5.625S37.833,32,40,32h272c2.167,0,4.042,0.792,5.625,2.375S320,37.833,320,40V344z"
   id="path3177" />
	<circle
   display="none"
   cx="115.667"
   cy="93.666"
   r="8.167"
   id="circle3179" />
	<rect
   x="64.333"
   y="164.5"
   display="none"
   width="224"
   height="55"
   id="rect3181" />
	<rect
   x="64.333"
   y="255"
   display="none"
   width="224"
   height="55"
   id="rect3183" />
</g>
<g
   id="layer1"
   label="Gear large whole"
   groupmode="layer">
	<path
   id="path8439"
   connector-curvature="0"
   d="m 135.11717,149.80462 c -2.07677,-0.25668 -3.94718,1.21413 -4.20369,3.2889 l -1.64216,13.30099 c -0.57991,0.0694 -1.15241,0.1345 -1.73341,0.2169 -7.64304,1.06859 -14.88011,3.2242 -21.58163,6.27506 L 97.675997,162.274 c -1.286782,-1.64914 -3.645699,-1.93968 -5.294754,-0.6539 l -23.821618,18.58624 c -1.649223,1.28778 -1.939683,3.6457 -0.653982,5.29575 l 8.43146,10.80688 c -4.924228,6.30697 -8.905385,13.35394 -11.774354,20.88522 l -13.644665,-1.68424 c -2.075854,-0.2556 -3.957128,1.20125 -4.213808,3.27802 l -3.701747,29.98786 c -0.256596,2.07577 1.214218,3.94618 3.289075,4.20169 l 13.588036,1.67745 c 0.07049,0.61511 0.136565,1.23487 0.223077,1.85033 1.055256,7.53955 3.147934,14.69003 6.110765,21.31687 l -10.741553,8.38278 c -1.649139,1.28679 -1.941605,3.65658 -0.655904,5.30663 l 18.588154,23.81074 c 1.286782,1.64914 3.645699,1.93969 5.294754,0.6539 l 10.72766,-8.36088 c 6.311134,4.99383 13.367337,9.03197 20.936037,11.9332 l -1.65693,13.42819 c -0.25651,2.07478 1.20142,3.95514 3.27719,4.21174 l 29.98894,3.70083 c 2.07685,0.25568 3.94709,-1.21314 4.20369,-3.28891 l 1.65205,-13.38244 c 0.57276,-0.068 1.14751,-0.13591 1.72136,-0.21691 7.6359,-1.06719 14.85477,-3.20929 21.55393,-6.23225 l 8.29919,10.63816 c 1.28869,1.6503 3.64761,1.94084 5.29476,0.65389 l 23.82169,-18.57518 c 1.64922,-1.28778 1.94169,-3.65758 0.6549,-5.30671 l -8.3608,-10.71662 c 4.96859,-6.32129 8.9755,-13.37612 11.85273,-20.94584 l 13.50857,1.66773 c 2.07486,0.25551 3.95614,-1.20134 4.21173,-3.27719 l 3.70175,-29.98786 c 0.25668,-2.07677 -1.21314,-3.94709 -3.28899,-4.20269 l -13.57517,-1.67536 c -0.0606,-0.49485 -0.11989,-0.99261 -0.1876,-1.48606 -1.07051,-7.6442 -3.21589,-14.89547 -6.24845,-21.62354 l 10.81794,-8.44357 c 1.64914,-1.28678 1.94161,-3.65658 0.65582,-5.30563 l -18.58723,-23.8217 c -1.28578,-1.64906 -3.64462,-1.9406 -5.29467,-0.6549 l -10.80681,8.44251 c -6.2907,-4.99812 -13.31906,-9.05699 -20.84986,-11.97911 l 1.65977,-13.45003 c 0.25651,-2.07477 -1.20134,-3.95613 -3.2781,-4.21281 l -29.98686,-3.70166 z m 10.19131,36.89452 c 26.22914,2.94575 48.05592,23.23755 51.88721,50.63115 4.54192,32.46639 -18.02633,61.83133 -50.49355,66.37117 -32.46639,4.54192 -62.207701,-17.50315 -66.74862,-49.96946 -4.541832,-32.46738 17.953922,-62.28102 50.42131,-66.82285 5.07171,-0.70971 10.07742,-0.75663 14.93365,-0.21001 z m -1.81183,14.87027 c -3.60047,-0.41948 -7.31198,-0.39172 -11.05941,0.13277 -23.98022,3.35285 -40.751719,25.84725 -37.397875,49.82755 3.354925,23.9794 25.624985,40.78113 49.604375,37.4262 23.98031,-3.35384 40.78087,-25.62199 37.42802,-49.60221 -2.83034,-20.23296 -19.14,-35.51671 -38.57511,-37.78431 z m -2.06039,18.75213 c 11.20311,1.25525 20.50811,9.90599 22.14561,21.61433 1.94119,13.87558 -7.67402,26.36572 -21.5496,28.30691 -13.87566,1.94219 -26.55783,-7.43132 -28.4991,-21.30591 -1.94119,-13.87558 7.64187,-26.57918 21.51836,-28.51929 2.16733,-0.30469 4.31084,-0.32739 6.38473,-0.096 z"
   inkscape:connector-curvature="0" />
</g>
<g
   id="layer1_1_"
   label="Gear large whole"
   groupmode="layer"
   transform="matrix(0.88954639,0.45684485,-0.45684485,0.88954639,78.147019,-93.949174)">
	<path
   id="path8439_1_"
   connector-curvature="0"
   d="m 245.663,45.848 c -1.344,-0.418 -2.758,0.331 -3.176,1.674 l -2.679,8.608 c -0.392,-0.024 -0.778,-0.049 -1.174,-0.064 -5.187,-0.208 -10.234,0.354 -15.035,1.572 l -4.212,-8.016 c -0.654,-1.246 -2.181,-1.721 -3.427,-1.066 l -17.992,9.453 c -1.246,0.655 -1.721,2.181 -1.066,3.427 l 4.289,8.162 c -4.015,3.586 -7.492,7.774 -10.294,12.417 l -8.829,-2.748 c -1.345,-0.418 -2.764,0.32 -3.182,1.665 l -6.039,19.407 c -0.418,1.343 0.331,2.757 1.676,3.175 l 8.793,2.736 c -0.027,0.416 -0.057,0.834 -0.073,1.252 -0.204,5.117 0.325,10.1 1.494,14.842 l -8.113,4.263 c -1.245,0.654 -1.723,2.188 -1.068,3.434 l 9.455,17.984 c 0.654,1.246 2.181,1.721 3.427,1.066 l 8.101,-4.25 c 3.58,4.061 7.768,7.578 12.431,10.403 l -2.704,8.689 c -0.418,1.343 0.322,2.763 1.666,3.181 l 19.406,6.039 c 1.344,0.418 2.758,-0.332 3.176,-1.674 l 2.694,-8.66 c 0.388,0.023 0.776,0.047 1.166,0.062 5.182,0.206 10.216,-0.348 15.013,-1.547 l 4.221,8.035 c 0.655,1.247 2.183,1.722 3.428,1.067 l 17.989,-9.445 c 1.245,-0.655 1.723,-2.189 1.068,-3.435 l -4.252,-8.094 c 4.044,-3.589 7.542,-7.779 10.353,-12.447 l 8.74,2.72 c 1.343,0.417 2.763,-0.321 3.181,-1.665 l 6.038,-19.407 c 0.419,-1.344 -0.331,-2.758 -1.674,-3.176 l -8.785,-2.734 c 0.019,-0.334 0.039,-0.671 0.053,-1.006 0.206,-5.188 -0.347,-10.245 -1.548,-15.062 l 8.171,-4.294 c 1.245,-0.654 1.722,-2.188 1.068,-3.434 l -9.452,-17.992 c -0.653,-1.246 -2.181,-1.721 -3.428,-1.067 l -8.162,4.296 c -3.567,-4.062 -7.733,-7.589 -12.368,-10.424 l 2.709,-8.705 c 0.418,-1.343 -0.322,-2.762 -1.666,-3.18 l -19.408,-6.037 z m 2.331,25.64 c 17.01,5.088 29.028,21.132 28.288,39.723 -0.879,22.034 -19.331,38.771 -41.365,37.891 -22.033,-0.879 -39.082,-19.029 -38.203,-41.062 0.879,-22.035 19.337,-39.077 41.37,-38.199 3.443,0.137 6.761,0.705 9.91,1.647 z m -2.977,9.626 c -2.333,-0.708 -4.794,-1.134 -7.337,-1.235 -16.274,-0.649 -30.066,12.232 -30.716,28.508 -0.649,16.274 12.081,30.061 28.355,30.709 16.274,0.649 30.06,-12.081 30.709,-28.356 0.549,-13.731 -8.42,-25.799 -21.011,-29.626 z m -3.609,12.167 c 7.266,2.171 12.39,9.011 12.072,16.956 -0.375,9.417 -8.234,16.535 -17.65,16.159 -9.418,-0.376 -16.691,-8.098 -16.316,-17.514 0.377,-9.417 8.24,-16.679 17.656,-16.303 1.472,0.06 2.892,0.3 4.238,0.702 z"
   inkscape:connector-curvature="0" />
</g>
<g
   id="layer1_2_"
   label="Gear large whole"
   groupmode="layer"
   transform="translate(12,-16)">
	<path
   id="path8439_2_"
   connector-curvature="0"
   d="m 88.472,61.992 c -0.907,0.123 -1.535,0.952 -1.412,1.859 l 0.787,5.809 c -0.238,0.093 -0.472,0.185 -0.709,0.284 -3.114,1.304 -5.935,3.021 -8.429,5.058 l -4.685,-3.566 c -0.728,-0.555 -1.758,-0.416 -2.312,0.312 l -8.006,10.514 c -0.555,0.729 -0.415,1.759 0.313,2.312 l 4.77,3.632 c -1.381,3.216 -2.28,6.639 -2.655,10.145 l -5.958,0.807 c -0.907,0.123 -1.54,0.948 -1.417,1.855 l 1.773,13.096 c 0.123,0.906 0.952,1.534 1.86,1.411 l 5.934,-0.803 c 0.098,0.251 0.196,0.506 0.301,0.757 1.285,3.072 2.967,5.863 4.958,8.336 l -3.61,4.741 c -0.555,0.728 -0.415,1.762 0.313,2.318 l 10.513,8.001 c 0.729,0.554 1.758,0.414 2.312,-0.313 l 3.607,-4.73 c 3.226,1.409 6.66,2.332 10.184,2.716 l 0.794,5.863 c 0.123,0.907 0.948,1.54 1.855,1.417 l 13.096,-1.773 c 0.906,-0.123 1.534,-0.953 1.411,-1.859 l -0.791,-5.844 c 0.235,-0.092 0.47,-0.185 0.704,-0.284 3.111,-1.302 5.925,-3.011 8.422,-5.036 l 4.695,3.576 c 0.729,0.554 1.759,0.415 2.313,-0.313 l 8.007,-10.509 c 0.554,-0.729 0.413,-1.764 -0.314,-2.318 l -4.73,-3.602 c 1.397,-3.226 2.308,-6.657 2.681,-10.179 l 5.899,-0.798 c 0.906,-0.123 1.54,-0.948 1.417,-1.855 L 140.59,89.933 c -0.123,-0.907 -0.953,-1.535 -1.859,-1.412 l -5.928,0.803 c -0.081,-0.202 -0.162,-0.406 -0.246,-0.607 -1.304,-3.114 -3.019,-5.942 -5.05,-8.451 l 3.636,-4.775 c 0.554,-0.728 0.414,-1.763 -0.314,-2.317 l -10.514,-8.006 c -0.728,-0.555 -1.758,-0.416 -2.313,0.313 l -3.63,4.774 c -3.218,-1.413 -6.642,-2.347 -10.153,-2.745 l -0.795,-5.874 c -0.123,-0.906 -0.949,-1.54 -1.855,-1.417 l -13.097,1.773 z m 8.418,14.47 c 11.422,-1.675 22.914,4.478 27.585,15.638 5.535,13.227 -0.74,28.16 -13.967,33.695 -13.227,5.536 -28.261,-0.476 -33.797,-13.703 -5.536,-13.227 0.66,-28.342 13.886,-33.878 2.067,-0.865 4.178,-1.442 6.293,-1.752 z m 0.89,6.491 c -1.569,0.223 -3.136,0.648 -4.662,1.288 -9.77,4.088 -14.358,15.47 -10.27,25.24 4.089,9.77 15.379,14.396 25.148,10.307 9.769,-4.089 14.396,-15.378 10.307,-25.148 C 114.854,86.396 106.252,81.749 97.78,82.953 z m 1.217,8.161 c 4.877,-0.716 9.777,1.906 11.773,6.676 2.366,5.653 -0.311,12.007 -5.962,14.372 -5.653,2.366 -12.062,-0.186 -14.428,-5.838 -2.365,-5.652 0.274,-12.093 5.926,-14.458 0.883,-0.37 1.788,-0.619 2.691,-0.752 z"
   inkscape:connector-curvature="0" />
</g>
</svg>