<?xml version="1.0" encoding="UTF-8" standalone="no"?>
<!-- Created with Inkscape (http://www.inkscape.org/) -->

<svg
   xmlns:dc="http://purl.org/dc/elements/1.1/"
   xmlns:cc="http://creativecommons.org/ns#"
   xmlns:rdf="http://www.w3.org/1999/02/22-rdf-syntax-ns#"
   xmlns:svg="http://www.w3.org/2000/svg"
   xmlns="http://www.w3.org/2000/svg"
   xmlns:sodipodi="http://sodipodi.sourceforge.net/DTD/sodipodi-0.dtd"
   xmlns:inkscape="http://www.inkscape.org/namespaces/inkscape"
   width="512"
   height="512"
   id="svg4626"
   version="1.1"
   inkscape:version="0.48.2 r9819"
   sodipodi:docname="gear-lg-sans-circle.svg"
   inkscape:export-filename="/Users/stevegoodwin/Repository/Projects/OpenShift/ICONS/Console icons/restart16x16.png"
   inkscape:export-xdpi="90"
   inkscape:export-ydpi="90">
  <defs
     id="defs4628" />
  <sodipodi:namedview
     id="base"
     pagecolor="#ffffff"
     bordercolor="#666666"
     borderopacity="1.0"
     inkscape:pageopacity="0.0"
     inkscape:pageshadow="2"
     inkscape:zoom="1.2871609"
     inkscape:cx="194.78389"
     inkscape:cy="247.55534"
     inkscape:current-layer="g4610"
     showgrid="true"
     inkscape:grid-bbox="true"
     inkscape:document-units="px"
     inkscape:window-width="1930"
     inkscape:window-height="1043"
     inkscape:window-x="1441"
     inkscape:window-y="38"
     inkscape:window-maximized="0"
     showguides="true"
     inkscape:guide-bbox="true">
    <inkscape:grid
       type="xygrid"
       id="grid9820" />
  </sodipodi:namedview>
  <metadata
     id="metadata4631">
    <rdf:RDF>
      <cc:Work
         rdf:about="">
        <dc:format>image/svg+xml</dc:format>
        <dc:type
           rdf:resource="http://purl.org/dc/dcmitype/StillImage" />
        <dc:title></dc:title>
      </cc:Work>
    </rdf:RDF>
  </metadata>
  <g
     style="display:none"
     inkscape:label="Number circle knockout copy copy"
     id="g4778"
     inkscape:groupmode="layer"
     sodipodi:insensitive="true">
    <rect
       ry="144"
       rx="144"
       y="253.99872"
       x="256"
       height="290.25143"
       width="288"
       id="rect4780"
       style="fill:#000000;fill-opacity:1;stroke:none;display:inline" />
  </g>
  <g
     inkscape:groupmode="layer"
     id="layer6"
     inkscape:label="blk bg"
     style="display:none"
     sodipodi:insensitive="true">
    <rect
       style="fill:#000000;fill-opacity:1;fill-rule:nonzero;stroke:none"
       id="rect8101"
       width="527.41858"
       height="527.41858"
       x="-9.9356728"
       y="-7.1388788" />
  </g>
  <g
     inkscape:groupmode="layer"
     id="layer5"
     inkscape:label="Gear sm not OLD"
     style="display:none"
     sodipodi:insensitive="true">
    <path
       style="font-size:medium;font-style:normal;font-variant:normal;font-weight:normal;font-stretch:normal;text-indent:0;text-align:start;text-decoration:none;line-height:normal;letter-spacing:normal;word-spacing:normal;text-transform:none;direction:ltr;block-progression:tb;writing-mode:lr-tb;text-anchor:start;baseline-shift:baseline;color:#000000;fill:#000000;fill-opacity:1;stroke:none;stroke-width:2.13803053;marker:none;visibility:visible;display:inline;overflow:visible;enable-background:accumulate;font-family:Sans;-inkscape-font-specification:Sans"
       d="M 212.63197,94.148901 C 123.77744,117.95724 70.946209,210.73369 94.754892,299.58822 118.56323,388.44241 210.47236,441.50609 299.32689,417.69775 388.18107,393.88941 441.24475,301.98029 417.43641,213.1261 393.62773,124.27157 301.4865,70.340559 212.63197,94.148901 z m 16.03721,59.852119 c 56.78114,-15.21425 114.56785,18.14869 129.78244,74.92984 15.21425,56.78114 -18.38114,113.70018 -75.16228,128.91477 -56.78114,15.21425 -114.33541,-17.28136 -129.54966,-74.06251 -15.21459,-56.78114 18.1487,-114.56751 74.9295,-129.7821 z"
       id="path9042"
       inkscape:connector-curvature="0" />
    <path
       transform="matrix(9.2710204,-2.4841626,2.4841647,9.271031,-7321.2321,300.35213)"
       d="m 768.5,199.86218 a 4.75,4.75 0 1 1 -9.5,0 4.75,4.75 0 1 1 9.5,0 z"
       sodipodi:ry="4.75"
       sodipodi:rx="4.75"
       sodipodi:cy="199.86218"
       sodipodi:cx="763.75"
       id="path9044"
       style="fill:#000000;fill-opacity:1;stroke:none"
       sodipodi:type="arc" />
    <rect
       style="fill:#000000;fill-opacity:1;stroke:none"
       id="rect9046"
       width="68.26667"
       height="68.26667"
       x="221.86676"
       y="51.200573"
       ry="10.240001" />
    <rect
       y="392.53391"
       x="221.86676"
       height="68.26667"
       width="68.26667"
       id="rect9048"
       style="fill:#000000;fill-opacity:1;stroke:none"
       ry="10.240001" />
    <rect
       transform="matrix(0,-1,1,0,0,0)"
       y="51.200085"
       x="-290.13391"
       height="68.26667"
       width="68.26667"
       id="rect9050"
       style="fill:#000000;fill-opacity:1;stroke:none"
       ry="10.240001" />
    <rect
       transform="matrix(0,-1,1,0,0,0)"
       style="fill:#000000;fill-opacity:1;stroke:none"
       id="rect9052"
       width="68.26667"
       height="68.26667"
       x="-290.13391"
       y="392.53342"
       ry="10.240001" />
    <rect
       style="fill:#000000;fill-opacity:1;stroke:none"
       id="rect9054"
       width="68.26667"
       height="68.26667"
       x="-396.17017"
       y="-204.80595"
       transform="matrix(-0.70710678,-0.70710678,0.70710678,-0.70710678,0,0)"
       ry="10.240001" />
    <rect
       y="136.52789"
       x="-396.17017"
       height="68.26667"
       width="68.26667"
       id="rect9056"
       style="fill:#000000;fill-opacity:1;stroke:none"
       transform="matrix(-0.70710678,-0.70710678,0.70710678,-0.70710678,0,0)"
       ry="10.240001" />
    <rect
       transform="matrix(-0.70710678,0.70710678,-0.70710678,-0.70710678,0,0)"
       y="-566.83685"
       x="-34.127888"
       height="68.26667"
       width="68.26667"
       id="rect9058"
       style="fill:#000000;fill-opacity:1;stroke:none"
       ry="10.240001" />
    <rect
       transform="matrix(-0.70710678,0.70710678,-0.70710678,-0.70710678,0,0)"
       style="fill:#000000;fill-opacity:1;stroke:none"
       id="rect9060"
       width="68.26667"
       height="68.26667"
       x="-34.127888"
       y="-225.50351"
       ry="10.240001" />
  </g>
  <g
     inkscape:groupmode="layer"
     id="layer8"
     inkscape:label="Gear small whole"
     style="display:none">
    <path
       style="fill:#000000;fill-opacity:1;stroke:none"
       d="M 230.21875,64 C 226.7714,64 224,66.771398 224,70.21875 l 0,3.375 0,28.625 c -2.88957,0.59984 -5.77129,1.28949 -8.65625,2.0625 -16.56258,4.4379 -31.78209,11.42431 -45.375,20.4375 L 149.65625,104.40625 147.25,102 c -2.43765,-2.437651 -6.3436,-2.437647 -8.78125,0 l -2.40625,2.40625 -31.65625,31.6875 -2.40625,2.375 c -2.43764,2.43764 -2.43765,6.3436 0,8.78125 l 2.40625,2.40625 20.625,20.625 C 114.47069,186.59664 106.8778,204.80718 102.84375,224 l -32.625,0 C 66.771398,224 64,226.7714 64,230.21875 l 0,3.375 0,44.8125 0,3.375 C 64,285.2286 66.771398,288 70.21875,288 l 32.53125,0 c 0.61224,2.95838 1.30271,5.92281 2.09375,8.875 4.3887,16.3789 11.27534,31.44598 20.09375,44.9375 L 104.40625,362.34375 102,364.75 c -2.437646,2.43765 -2.437646,6.3436 0,8.78125 l 2.40625,2.40625 31.65625,31.65625 2.40625,2.40625 c 2.43765,2.43765 6.3436,2.43765 8.78125,0 l 22.9375,-22.9375 c 16.31265,10.70253 34.5587,18.39046 53.8125,22.46875 l 0,28.875 0,3.375 C 224,445.2286 226.7714,448 230.21875,448 l 51.5625,0 C 285.2286,448 288,445.2286 288,441.78125 l 0,-32.15625 c 2.87825,-0.60011 5.71958,-1.29237 8.59375,-2.0625 16.54881,-4.43423 31.77689,-11.36155 45.375,-20.3125 l 20.375,20.34375 L 364.75,410 c 2.43765,2.43765 6.3436,2.43765 8.78125,0 L 410,373.53125 c 2.43765,-2.43765 2.43765,-6.3436 0,-8.78125 l -2.40625,-2.40625 -20.5,-20.46875 C 397.74754,325.53484 405.35181,307.26567 409.375,288 l 32.40625,0 C 445.2286,288 448,285.2286 448,281.78125 l 0,-3.375 0,-44.8125 0,-3.375 C 448,226.7714 445.2286,224 441.78125,224 l -32.46875,0 c -0.57818,-2.7347 -1.23701,-5.45661 -1.96875,-8.1875 -4.44001,-16.57021 -11.45602,-31.83697 -20.4375,-45.5 L 407.59375,149.65625 410,147.25 c 2.43765,-2.43765 2.43765,-6.3436 0,-8.78125 l -2.40625,-2.375 -31.6875,-31.6875 -2.375,-2.40625 c -2.43765,-2.437646 -6.3436,-2.437646 -8.78125,0 l -23.0625,23.09375 C 325.40293,114.36644 307.19163,106.64226 288,102.5 l 0,-28.90625 0,-3.375 C 288,66.771398 285.2286,64 281.78125,64 l -51.5625,0 z M 255.25,156.96875 c 44.31906,-0.51263 84.747,28.74421 96.78125,73.65625 14.26248,53.22907 -17.23968,106.58094 -70.46875,120.84375 -53.22907,14.26249 -107.14377,-16.20842 -121.40625,-69.4375 -14.26281,-53.22907 16.99,-107.39345 70.21875,-121.65625 8.31704,-2.22852 16.66776,-3.31131 24.875,-3.40625 z M 256,224 c -17.67311,0 -32,14.32689 -32,32 0,17.67311 14.32689,32 32,32 17.67311,0 32,-14.32689 32,-32 0,-17.67311 -14.32689,-32 -32,-32 z"
       id="rect10566"
       inkscape:connector-curvature="0" />
  </g>
  <g
     style="display:none"
     inkscape:label="Gear small sans circle"
     id="g4867"
     inkscape:groupmode="layer">
    <path
       style="fill:#000000;fill-opacity:1;stroke:none"
       d="M 230.21875,64 C 226.7714,64 224,66.771398 224,70.21875 l 0,3.375 0,28.625 c -2.88957,0.59984 -5.77129,1.28949 -8.65625,2.0625 -16.56258,4.4379 -31.78209,11.42431 -45.375,20.4375 L 149.65625,104.40625 147.25,102 c -2.43765,-2.437651 -6.3436,-2.437647 -8.78125,0 l -2.40625,2.40625 -31.65625,31.6875 -2.40625,2.375 c -2.43764,2.43764 -2.43765,6.3436 0,8.78125 l 2.40625,2.40625 20.625,20.625 C 114.47069,186.59664 106.8778,204.80718 102.84375,224 l -32.625,0 C 66.771398,224 64,226.7714 64,230.21875 l 0,3.375 0,44.8125 0,3.375 C 64,285.2286 66.771398,288 70.21875,288 l 32.53125,0 c 0.61224,2.95838 1.30271,5.92281 2.09375,8.875 4.3887,16.3789 11.27534,31.44598 20.09375,44.9375 L 104.40625,362.34375 102,364.75 c -2.437646,2.43765 -2.437646,6.3436 0,8.78125 l 2.40625,2.40625 31.65625,31.65625 2.40625,2.40625 c 2.43765,2.43765 6.3436,2.43765 8.78125,0 l 22.9375,-22.9375 c 16.31265,10.70253 34.5587,18.39046 53.8125,22.46875 l 0,28.875 0,3.375 C 224,445.2286 226.7714,448 230.21875,448 l 34,0 c -0.56856,-1.62514 -1.26972,-3.19222 -1.78125,-4.84375 -1.3983,-4.51455 -2.57528,-9.11703 -3.53125,-13.8125 C 257.95028,424.64828 257.23987,419.85262 256.75,415 256.26013,410.14738 256,405.236 256,400.25 l 0,-2.25 c 0,-4.986 0.26013,-9.89738 0.75,-14.75 0.48987,-4.85262 1.20028,-9.64828 2.15625,-14.34375 0.95597,-4.69547 2.13295,-9.29795 3.53125,-13.8125 0.046,-0.14866 0.10974,-0.28905 0.15625,-0.4375 -46.52857,3.45102 -89.87386,-25.73617 -102.4375,-72.625 -14.26281,-53.22907 16.99,-107.39345 70.21875,-121.65625 8.31704,-2.22852 16.66776,-3.31131 24.875,-3.40625 44.31906,-0.51263 84.747,28.74421 96.78125,73.65625 2.74629,10.24944 3.75696,20.49015 3.28125,30.46875 0.60395,-0.19592 1.17378,-0.4681 1.78125,-0.65625 4.51455,-1.3983 9.11703,-2.57528 13.8125,-3.53125 4.69547,-0.95597 9.49113,-1.66638 14.34375,-2.15625 4.85262,-0.48987 9.764,-0.75 14.75,-0.75 4.986,0 9.89738,0.26013 14.75,0.75 4.85262,0.48987 9.64828,1.20028 14.34375,2.15625 4.69547,0.95597 9.29795,2.13295 13.8125,3.53125 1.73697,0.53799 3.386,1.27396 5.09375,1.875 l 0,-28.71875 0,-3.375 C 448,226.7714 445.2286,224 441.78125,224 l -32.46875,0 c -0.57818,-2.7347 -1.23701,-5.45661 -1.96875,-8.1875 -4.44001,-16.57021 -11.45602,-31.83697 -20.4375,-45.5 L 407.59375,149.65625 410,147.25 c 2.43765,-2.43765 2.43765,-6.3436 0,-8.78125 l -2.40625,-2.375 -31.6875,-31.6875 -2.375,-2.40625 c -2.43765,-2.437646 -6.3436,-2.437646 -8.78125,0 l -23.0625,23.09375 C 325.40293,114.36644 307.19163,106.64226 288,102.5 l 0,-28.90625 0,-3.375 C 288,66.771398 285.2286,64 281.78125,64 l -51.5625,0 z M 256,224 c -17.67311,0 -32,14.32689 -32,32 0,17.67311 14.32689,32 32,32 17.67311,0 32,-14.32689 32,-32 0,-17.67311 -14.32689,-32 -32,-32 z"
       id="path4869"
       inkscape:connector-curvature="0" />
  </g>
  <g
     inkscape:groupmode="layer"
     id="layer1"
     inkscape:label="Gear large whole"
     style="display:inline">
    <path
       style="font-size:medium;font-style:normal;font-variant:normal;font-weight:normal;font-stretch:normal;text-indent:0;text-align:start;text-decoration:none;line-height:normal;letter-spacing:normal;word-spacing:normal;text-transform:none;direction:ltr;block-progression:tb;writing-mode:lr-tb;text-anchor:start;baseline-shift:baseline;color:#000000;fill:#000000;fill-opacity:1;stroke:none;stroke-width:1.38216019;marker:none;visibility:visible;display:inline;overflow:visible;enable-background:accumulate;font-family:Sans;-inkscape-font-specification:Sans"
       d="M 215.03125,0 C 209.35829,0 204.8125,4.57704 204.8125,10.25 l 0,36.34375 c -1.53767,0.375718 -3.05732,0.744565 -4.59375,1.15625 -20.21678,5.417046 -38.97631,13.62274 -56,24.0625 L 118.40625,46 c -4.01139,-4.011388 -10.45736,-4.011388 -14.46875,0 L 46,103.9375 c -4.01139,4.01139 -4.01139,10.45736 0,14.46875 l 26.28125,26.28125 c -11.1561,18.61101 -19.5273,38.89656 -24.75,60.125 l -37.28125,0 C 4.57704,204.8125 0,209.35829 0,215.03125 l 0,81.9375 c 0,5.67296 4.57704,10.21875 10.25,10.21875 l 37.125,0 c 0.39705,1.63244 0.7818,3.27555 1.21875,4.90625 5.3438,19.94324 13.3528,38.48798 23.53125,55.34375 L 46,393.5625 c -4.01139,4.01139 -4.01139,10.48861 0,14.5 l 57.9375,57.90625 c 4.01139,4.01139 10.45736,4.01139 14.46875,0 L 144.5,439.90625 c 18.64685,11.3437 38.97593,19.86405 60.3125,25.15625 l 0,36.6875 c 0,5.67296 4.54579,10.25 10.21875,10.25 l 81.9375,0 c 5.67296,0 10.21875,-4.57704 10.21875,-10.25 l 0,-36.5625 c 1.51935,-0.37211 3.04425,-0.74944 4.5625,-1.15625 20.19501,-5.41121 38.91199,-13.57508 55.9375,-23.9375 l 25.875,25.875 c 4.01139,4.01139 10.45736,4.01139 14.46875,0 l 57.9375,-57.90625 c 4.01139,-4.01139 4.01139,-10.48861 0,-14.5 L 439.90625,367.5 c 11.26943,-18.66251 19.71431,-38.98101 24.9375,-60.3125 l 36.90625,0 c 5.67296,0 10.25,-4.54579 10.25,-10.21875 l 0,-81.9375 c 0,-5.67296 -4.57704,-10.21875 -10.25,-10.21875 l -37.09375,0 c -0.32485,-1.30947 -0.64935,-2.62887 -1,-3.9375 -5.418,-20.22017 -13.60257,-39.02123 -24,-56.125 l 26.3125,-26.3125 c 4.01139,-4.01139 4.01139,-10.48861 0,-14.5 L 408.03125,46 c -4.01139,-4.011388 -10.45736,-4.011388 -14.46875,0 L 367.28125,72.3125 C 348.69087,60.950425 328.42801,52.36233 307.1875,47 l 0,-36.75 C 307.1875,4.57704 302.64171,0 296.96875,0 l -81.9375,0 z m 39.6875,95.90625 c 71.56933,-0.784766 137.05512,46.57888 156.46875,119.03125 23.00886,85.86986 -27.97399,172.39762 -113.84375,195.40625 -85.86976,23.00864 -173.24114,-26.44264 -196.25,-112.3125 -23.00876,-85.86947 27.63024,-173.58511 113.5,-196.59375 13.41715,-3.595098 26.87142,-5.385923 40.125,-5.53125 z m 0.0625,40.625 c -9.82585,0.0656 -19.80843,1.37579 -29.71875,4.03125 -63.42607,16.99494 -101.08873,83.10519 -84.09375,146.53125 16.99503,63.42626 82.51144,101.24494 145.9375,84.25 63.42607,-16.99495 101.24504,-82.51124 84.25,-145.9375 -14.33951,-53.51575 -63.31539,-89.22918 -116.375,-88.875 z m 0.6875,51.15625 c 30.56705,-0.34675 58.4844,19.84826 66.78125,50.8125 9.83336,36.69855 -11.8954,73.51046 -48.59375,83.34375 -36.69836,9.83328 -73.94789,-11.17645 -83.78125,-47.875 -9.8333,-36.69836 11.73914,-74.07296 48.4375,-83.90625 5.73412,-1.53645 11.49568,-2.31079 17.15625,-2.375 z"
       id="path8439"
       inkscape:connector-curvature="0" />
  </g>
  <g
     style="display:none"
     inkscape:label="Gear large sans circle"
     id="g4610"
     inkscape:groupmode="layer">
    <path
       style="font-size:medium;font-style:normal;font-variant:normal;font-weight:normal;font-stretch:normal;text-indent:0;text-align:start;text-decoration:none;line-height:normal;letter-spacing:normal;word-spacing:normal;text-transform:none;direction:ltr;block-progression:tb;writing-mode:lr-tb;text-anchor:start;baseline-shift:baseline;color:#000000;fill:#000000;fill-opacity:1;stroke:none;stroke-width:1.38216019;marker:none;visibility:visible;display:inline;overflow:visible;enable-background:accumulate;font-family:Sans;-inkscape-font-specification:Sans"
       d="M 215.03125,0 C 209.35829,0 204.8125,4.57704 204.8125,10.25 l 0,36.34375 c -1.53767,0.375718 -3.05732,0.744565 -4.59375,1.15625 -20.21678,5.417046 -38.97631,13.62274 -56,24.0625 L 118.40625,46 c -4.01139,-4.011388 -10.45736,-4.011388 -14.46875,0 L 46,103.9375 c -4.01139,4.01139 -4.01139,10.45736 0,14.46875 l 26.28125,26.28125 c -11.1561,18.61101 -19.5273,38.89656 -24.75,60.125 l -37.28125,0 C 4.57704,204.8125 0,209.35829 0,215.03125 l 0,81.9375 c 0,5.67296 4.57704,10.21875 10.25,10.21875 l 37.125,0 c 0.39705,1.63244 0.7818,3.27555 1.21875,4.90625 5.3438,19.94324 13.3528,38.48798 23.53125,55.34375 L 46,393.5625 c -4.01139,4.01139 -4.01139,10.48861 0,14.5 l 57.9375,57.90625 c 4.01139,4.01139 10.45736,4.01139 14.46875,0 L 144.5,439.90625 c 18.64685,11.3437 38.97593,19.86405 60.3125,25.15625 l 0,36.6875 c 0,5.67296 4.54579,10.25 10.21875,10.25 l 81.9375,0 c 3.12671,0 5.91174,-1.39579 7.78125,-3.59375 -26.2347,-23.1045 -43.94418,-55.65774 -47.90625,-92.4375 -71.34354,0.88102 -136.37051,-45.61259 -155.75,-117.9375 -23.00876,-85.86947 27.63024,-173.58511 113.5,-196.59375 13.41715,-3.595098 26.87142,-5.385923 40.125,-5.53125 71.56933,-0.784766 137.05512,46.57888 156.46875,119.03125 3.5923,13.4066 5.36607,26.83681 5.5,40.03125 36.94952,4.23188 69.56818,22.32554 92.53125,49 1.7188,-1.82459 2.78125,-4.28171 2.78125,-7 l 0,-81.9375 c 0,-5.67296 -4.57704,-10.21875 -10.25,-10.21875 l -37.09375,0 c -0.32485,-1.30947 -0.64935,-2.62887 -1,-3.9375 -5.418,-20.22017 -13.60257,-39.02123 -24,-56.125 l 26.3125,-26.3125 c 4.01139,-4.01139 4.01139,-10.48861 0,-14.5 L 408.03125,46 c -4.01139,-4.011388 -10.45736,-4.011388 -14.46875,0 L 367.28125,72.3125 C 348.69087,60.950425 328.42801,52.36233 307.1875,47 l 0,-36.75 C 307.1875,4.57704 302.64171,0 296.96875,0 l -81.9375,0 z m 39.75,136.53125 c -9.82585,0.0656 -19.80843,1.37579 -29.71875,4.03125 -63.42607,16.99494 -101.08873,83.10519 -84.09375,146.53125 14.38756,53.69506 63.55193,89.04294 116.78125,88.3125 3.13635,-20.07595 10.3869,-38.73542 20.875,-55.125 -1.62879,0.5663 -3.27452,1.10853 -4.96875,1.5625 -36.69836,9.83328 -73.94789,-11.17645 -83.78125,-47.875 -9.8333,-36.69836 11.73914,-74.07296 48.4375,-83.90625 5.73412,-1.53645 11.49568,-2.31079 17.15625,-2.375 30.56705,-0.34675 58.4844,19.84826 66.78125,50.8125 3.58014,13.36123 2.95526,26.72869 -1.03125,38.8125 16.04796,-10.46946 34.32457,-17.80273 54,-21.1875 -0.005,-10.15349 -1.3138,-20.46048 -4.0625,-30.71875 -14.33951,-53.51575 -63.31539,-89.22918 -116.375,-88.875 z"
       id="path4612"
       inkscape:connector-curvature="0" />
  </g>
  <g
     inkscape:groupmode="layer"
     id="layer7"
     inkscape:label="Number circle"
     style="display:none">
    <rect
       style="fill:#000000;fill-opacity:1;stroke:none;display:inline"
       id="rect9252-3"
       width="224"
       height="225.75113"
       x="288"
       y="286.24887"
       rx="112"
       ry="112" />
  </g>
</svg>
