<?xml version="1.0" encoding="UTF-8" standalone="no"?>
<!-- Generator: Adobe Illustrator 16.0.0, SVG Export Plug-In . SVG Version: 6.00 Build 0)  -->
<svg id="Layer_1" xmlns:rdf="http://www.w3.org/1999/02/22-rdf-syntax-ns#" xmlns="http://www.w3.org/2000/svg" xml:space="preserve" height="121.04px" viewBox="0 0 799.178 121.042" width="799.18px" version="1.2" y="0px" x="0px" xmlns:cc="http://creativecommons.org/ns#" xmlns:dc="http://purl.org/dc/elements/1.1/"><metadata id="metadata3155"><rdf:RDF><cc:Work rdf:about=""><dc:format>image/svg+xml</dc:format><dc:type rdf:resource="http://purl.org/dc/dcmitype/StillImage"/><dc:title/></cc:Work></rdf:RDF></metadata>
<g id="g956" transform="translate(-148.38302,323.95006)">
		<g id="g1783" transform="matrix(0.65198955,0,0,0.65198955,-50.48966,-345.48434)">
		<g id="g3103">
			<g id="g1785">
				<g id="g1787" transform="translate(646.5762,416.0308)">
					<path id="path1789" d="M-283.35-299.56l-32.185,11.711c0.413,5.16,1.301,10.257,2.552,15.251l30.57-11.133c-0.98-5.16-1.33-10.49-0.93-15.83" fill="#DA2430"/>
				</g>
				<g id="g1791" transform="translate(760.3594,444.5015)">
					<path id="path1793" d="M-254.9-363.62c-2.245-4.63-4.841-9.105-7.849-13.322l-32.176,11.711c3.745,3.83,6.885,8.135,9.456,12.739l30.57-11.13z" fill="#DA2430"/>
				</g>
				<g id="g1795" transform="translate(703.7178,451.793)">
					<path id="path1797" d="M-269.06-380.02c6.695,3.123,12.495,7.384,17.385,12.382l32.178-11.713c-8.911-12.507-21.052-22.957-35.93-29.899-45.996-21.449-100.88-1.474-122.32,44.517-6.941,14.884-9.521,30.695-8.311,46.001l32.181-11.71c0.534-6.972,2.236-13.958,5.355-20.658,13.93-29.89,49.58-42.85,79.46-28.92" fill="#DA2430"/>
				</g>
				<g id="g1799" transform="translate(624.4727,395.0469)">
					<path id="path1801" d="M-288.87-252.34l-30.576,11.136c2.811,11.147,7.684,21.738,14.379,31.165l32.109-11.689c-8.24-8.46-13.72-19.17-15.91-30.61" fill="#E82429"/>
				</g>
				<g id="g1803" transform="translate(731.1719,404.7539)">
					<path id="path1805" d="M-262.2-274.18c-0.509,6.968-2.271,13.958-5.398,20.662-13.939,29.887-49.584,42.856-79.468,28.92-6.703-3.126-12.543-7.354-17.419-12.36l-32.109,11.69c8.893,12.507,21.021,22.96,35.901,29.907,46,21.446,100.87,1.471,122.32-44.524,6.945-14.881,9.51-30.686,8.281-45.98l-32.1,11.68z" fill="#DA2430"/>
				</g>
				<g id="g1807" transform="translate(737.5039,436.1816)">
					<path id="path1809" d="M-260.62-344.9l-30.573,11.129c5.678,10.173,8.361,21.891,7.483,33.672l32.11-11.682c-0.92-11.52-3.99-22.77-9.02-33.12" fill="#E82429"/>
				</g>
			</g>
		</g>
	</g>
		<g id="g1819" fill="#FFF" transform="matrix(1.8829142,0,0,1.8829142,-694.78245,-201.35576)">
		<g id="text1811" transform="scale(1,-1)">
			<path id="path10223" d="M581.18,32.993c0,3.217-0.435,6.074-1.305,8.572-0.833,2.536-2.025,4.674-3.577,6.415-1.514,1.778-3.349,3.122-5.507,4.03-2.119,0.946-4.466,1.42-7.039,1.42-2.611,0-4.996-0.474-7.153-1.42s-4.011-2.308-5.563-4.087c-1.552-1.741-2.763-3.879-3.634-6.415-0.832-2.536-1.249-5.412-1.249-8.629s0.416-6.093,1.249-8.629c0.871-2.498,2.063-4.636,3.577-6.415,1.552-1.741,3.387-3.084,5.507-4.03,2.157-0.909,4.541-1.362,7.153-1.362,2.573,0,4.939,0.473,7.096,1.419s4.012,2.29,5.564,4.031c1.552,1.778,2.744,3.936,3.577,6.472,0.85,2.535,1.29,5.411,1.29,8.628zm-8.18-0.114c0-4.05-0.852-7.153-2.554-9.31-1.665-2.157-3.898-3.236-6.699-3.236s-5.071,1.097-6.812,3.293c-1.741,2.195-2.611,5.317-2.611,9.367s0.832,7.153,2.498,9.31c1.703,2.157,3.955,3.236,6.755,3.236,2.801,0,5.072-1.097,6.812-3.292,1.75-2.196,2.61-5.318,2.61-9.368z"/>
			<path id="path10225" d="M622.79,40.202c0,2.119-0.359,3.955-1.078,5.506-0.719,1.59-1.703,2.914-2.952,3.974s-2.706,1.835-4.371,2.328c-1.665,0.53-3.425,0.795-5.28,0.795h-17.371v-39.738h7.948v14.079h8.742c2.043,0,3.936,0.246,5.677,0.738,1.778,0.492,3.312,1.268,4.598,2.328s2.289,2.403,3.009,4.03c0.71,1.665,1.07,3.652,1.07,5.96zm-8.17-0.17c0-3.444-1.893-5.166-5.677-5.166h-9.253v10.218h9.14c1.779,0,3.179-0.416,4.201-1.249,1.06-0.794,1.59-2.062,1.59-3.803z"/>
			<path id="path10227" d="M661.34,13.067v7.777h-20.494v9.594h11.411v7.721h-11.411v6.869h19.642v7.777h-27.59v-39.738h28.438z"/>
			<path id="path10229" d="M704.54,13.067v39.738h-7.834v-16.804-2.101c0.038-0.832,0.057-1.684,0.057-2.554v-2.384c0.038-0.719,0.057-1.268,0.057-1.647-0.265,0.53-0.681,1.212-1.249,2.044-0.53,0.87-1.041,1.684-1.533,2.441l-14.079,21.004h-7.608v-39.737h7.834v17.485c0,0.568-0.019,1.268-0.057,2.101v2.498c0,0.871-0.019,1.665-0.057,2.385v1.703c0.265-0.53,0.662-1.23,1.192-2.101,0.568-0.832,1.097-1.627,1.59-2.384l14.589-21.686h7.099z"/>
		</g>
		<g id="text1815" transform="scale(1,-1)">
			<path id="path10232" d="M741.84,23.513c0,1.476-0.189,2.781-0.567,3.917-0.379,1.135-1.022,2.176-1.93,3.122-0.87,0.947-2.043,1.817-3.519,2.611-1.476,0.795-3.312,1.59-5.506,2.385-2.006,0.719-3.634,1.381-4.883,1.987-1.211,0.605-2.157,1.211-2.839,1.816-0.681,0.644-1.135,1.287-1.362,1.93-0.227,0.681-0.34,1.438-0.34,2.271,0,0.795,0.132,1.533,0.397,2.214,0.303,0.719,0.757,1.343,1.362,1.873,0.644,0.53,1.457,0.946,2.441,1.249,0.984,0.341,2.157,0.511,3.52,0.511,2.006,0,3.728-0.322,5.166-0.965,1.476-0.605,2.933-1.514,4.371-2.725l2.839,3.463c-1.665,1.325-3.444,2.366-5.337,3.122-1.854,0.757-4.106,1.136-6.755,1.136-1.854,0-3.557-0.227-5.109-0.682-1.514-0.454-2.819-1.135-3.917-2.043-1.06-0.871-1.892-1.93-2.498-3.179s-0.909-2.668-0.909-4.258c0-1.438,0.189-2.706,0.568-3.804,0.417-1.097,1.06-2.101,1.93-3.009,0.909-0.87,2.082-1.703,3.52-2.498,1.475-0.757,3.292-1.514,5.449-2.271,1.817-0.644,3.331-1.287,4.542-1.93,1.211-0.605,2.176-1.23,2.895-1.873,0.757-0.644,1.287-1.343,1.59-2.101,0.303-0.757,0.454-1.59,0.454-2.498,0-2.119-0.776-3.785-2.328-4.996-1.514-1.211-3.595-1.817-6.245-1.817-2.044,0-3.936,0.435-5.677,1.306-1.741,0.87-3.368,2.025-4.882,3.463l-2.952-3.293c1.59-1.59,3.52-2.914,5.791-3.974,2.309-1.022,4.826-1.533,7.55-1.533,2.081,0,3.936,0.284,5.563,0.852,1.628,0.567,3.009,1.343,4.145,2.327,1.135,0.984,1.987,2.158,2.554,3.52,0.62,1.365,0.93,2.822,0.93,4.374z"/>
			<path id="path10234" d="M782.2,13.067v39.738h-4.428v-16.974h-19.756v16.974h-4.428v-39.738h4.428v18.734h19.756v-18.734h4.43z"/>
			<path id="path10236" d="M799.91,13.067v39.738h-4.428v-39.738h4.432z"/>
			<path id="path10238" d="M836.53,48.775v4.03h-23.332v-39.738h4.428v18.507h10.9v4.03h-10.9v13.17h18.898z"/>
			<path id="path10240" d="M872.24,48.775v4.03h-27.817v-4.03h11.694v-35.708h4.428v35.708h11.695z"/>
		</g>
	</g>
</g>
<g id="g3921_1_">
	<g id="g3927_1_" transform="translate(304.9634,416.0308)">
		<path id="path3929_1_" d="M-266.99-361.75l-20.837,7.7c0.267,3.394,0.842,6.745,1.653,10.029l19.792-7.321c-0.64-3.4-0.87-6.9-0.6-10.41" fill="#C22035"/>
	</g>
	<g id="g3931_1_" transform="translate(418.7466,444.5015)">
		<path id="path3933_1_" d="M-288.69-413.62c-1.453-3.044-3.135-5.986-5.082-8.759l-20.832,7.7c2.424,2.519,4.457,5.349,6.121,8.377l19.79-7.32z" fill="#C22035"/>
	</g>
	<g id="g3935_1_" transform="translate(362.1055,451.793)">
		<path id="path3937_1_" d="M-277.89-426.91c4.334,2.055,8.089,4.855,11.255,8.143l20.833-7.702c-5.771-8.223-13.63-15.095-23.262-19.659-29.779-14.104-65.311-0.97-79.197,29.271-4.494,9.787-6.164,20.184-5.38,30.248l20.835-7.7c0.345-4.584,1.448-9.178,3.467-13.582,9.03-19.65,32.11-28.18,51.46-19.02" fill="#DA2430"/>
	</g>
	<g id="g3939_1_" transform="translate(282.8599,395.0469)">
		<path id="path3941_1_" d="M-262.78-323.52l-19.795,7.321c1.819,7.331,4.973,14.295,9.309,20.494l20.789-7.687c-5.33-5.56-8.88-12.6-10.3-20.12" fill="#E82429"/>
	</g>
	<g id="g3943_1_" transform="translate(389.5596,404.7539)">
		<path id="path3945_1_" d="M-283.13-341.2c-0.331,4.582-1.47,9.179-3.495,13.586-9.023,19.653-32.103,28.18-51.45,19.017-4.34-2.056-8.121-4.836-11.278-8.128l-20.788,7.688c5.756,8.224,13.608,15.098,23.243,19.665,29.781,14.102,65.308,0.967,79.195-29.275,4.497-9.785,6.157-20.178,5.362-30.235l-20.79,7.68z" fill="#DA2430"/>
	</g>
	<g id="g3947_1_" transform="translate(395.8906,436.1816)">
		<path id="path3949_1_" d="M-284.33-398.46l-19.793,7.317c3.676,6.69,5.414,14.395,4.844,22.142l20.79-7.681c-0.6-7.58-2.59-14.98-5.84-21.78" fill="#E82429"/>
	</g>
	<g id="g3951_1_" transform="translate(279.2158,406.6621)">
		<path id="path3953_1_" d="M-262.08-344.68l20.786-7.614-0.085,4.176-20.054,7.573-0.65-4.14z" fill="#AC223B"/>
	</g>
	<g id="g3955_1_" transform="translate(386.7266,445.8594)">
		<path id="path3957_1_" d="M-282.58-416.1l21.11-7.244,2.194,3.311-20.511,7.251-2.79-3.32z" fill="#AC223B"/>
	</g>
	<g id="g3959_1_" transform="translate(282.0435,365.709)">
		<path id="path3961_1_" d="M-262.62-270.07l20.811-7.573,6.294,5.938-21.824,8.193-5.28-6.56z" fill="#B92135"/>
	</g>
	<g id="g3963_1_" transform="translate(415.6782,414.0278)">
		<path id="path3965_1_" d="M-288.11-358.1l-21.137,7.622-1.557,8.461,22.537-8.032,0.16-8.05z" fill="#B92135"/>
	</g>
</g>
<style xmlns="http://www.w3.org/1999/xhtml" charset="utf-8" type="text/css">/* See license.txt for terms of usage */
/** reset styling **/
.firebugResetStyles {
    z-index: 2147483646 !important;
    top: 0 !important;
    left: 0 !important;
    display: block !important;
    border: 0 none !important;
    margin: 0 !important;
    padding: 0 !important;
    outline: 0 !important;
    min-width: 0 !important;
    max-width: none !important;
    min-height: 0 !important;
    max-height: none !important;
    position: fixed !important;
    transform: rotate(0deg) !important;
    transform-origin: 50% 50% !important;
    border-radius: 0 !important;
    box-shadow: none !important;
    background: transparent none !important;
    pointer-events: none !important;
    white-space: normal !important;
}

.firebugBlockBackgroundColor {
    background-color: transparent !important;
}

.firebugResetStyles:before, .firebugResetStyles:after {
    content: "" !important;
}
/**actual styling to be modified by firebug theme**/
.firebugCanvas {
    display: none !important;
}

/* * * * * * * * * * * * * * * * * * * * * * * * * * * * * * * * * * * * * * * * * * * * * * * * */
.firebugLayoutBox {
    width: auto !important;
    position: static !important;
}

.firebugLayoutBoxOffset {
    opacity: 0.8 !important;
    position: fixed !important;
}

.firebugLayoutLine {
    opacity: 0.4 !important;
    background-color: #000000 !important;
}

.firebugLayoutLineLeft, .firebugLayoutLineRight {
    width: 1px !important;
    height: 100% !important;
}

.firebugLayoutLineTop, .firebugLayoutLineBottom {
    width: 100% !important;
    height: 1px !important;
}

.firebugLayoutLineTop {
    margin-top: -1px !important;
    border-top: 1px solid #999999 !important;
}

.firebugLayoutLineRight {
    border-right: 1px solid #999999 !important;
}

.firebugLayoutLineBottom {
    border-bottom: 1px solid #999999 !important;
}

.firebugLayoutLineLeft {
    margin-left: -1px !important;
    border-left: 1px solid #999999 !important;
}

/* * * * * * * * * * * * * * * * * * * * * * * * * * * * * * * * * * * * * * * * * * * * * * * * */
.firebugLayoutBoxParent {
    border-top: 0 none !important;
    border-right: 1px dashed #E00 !important;
    border-bottom: 1px dashed #E00 !important;
    border-left: 0 none !important;
    position: fixed !important;
    width: auto !important;
}

.firebugRuler{
    position: absolute !important;
}

.firebugRulerH {
    top: -15px !important;
    left: 0 !important;
    width: 100% !important;
    height: 14px !important;
    background: url("data:image/png,%89PNG%0D%0A%1A%0A%00%00%00%0DIHDR%00%00%13%88%00%00%00%0E%08%02%00%00%00L%25a%0A%00%00%00%04gAMA%00%00%D6%D8%D4OX2%00%00%00%19tEXtSoftware%00Adobe%20ImageReadyq%C9e%3C%00%00%04%F8IDATx%DA%EC%DD%D1n%E2%3A%00E%D1%80%F8%FF%EF%E2%AF2%95%D0D4%0E%C1%14%B0%8Fa-%E9%3E%CC%9C%87n%B9%81%A6W0%1C%A6i%9A%E7y%0As8%1CT%A9R%A5J%95*U%AAT%A9R%A5J%95*U%AAT%A9R%A5J%95*U%AAT%A9R%A5J%95*U%AAT%A9R%A5J%95*U%AAT%A9R%A5J%95*U%AAT%A9R%A5J%95*U%AATE9%FE%FCw%3E%9F%AF%2B%2F%BA%97%FDT%1D~K(%5C%9D%D5%EA%1B%5C%86%B5%A9%BDU%B5y%80%ED%AB*%03%FAV9%AB%E1%CEj%E7%82%EF%FB%18%BC%AEJ8%AB%FA'%D2%BEU9%D7U%ECc0%E1%A2r%5DynwVi%CFW%7F%BB%17%7Dy%EACU%CD%0E%F0%FA%3BX%FEbV%FEM%9B%2B%AD%BE%AA%E5%95v%AB%AA%E3E5%DCu%15rV9%07%B5%7F%B5w%FCm%BA%BE%AA%FBY%3D%14%F0%EE%C7%60%0EU%AAT%A9R%A5J%95*U%AAT%A9R%A5J%95*U%AAT%A9R%A5J%95*U%AAT%A9R%A5J%95*U%AAT%A9R%A5JU%88%D3%F5%1F%AE%DF%3B%1B%F2%3E%DAUCNa%F92%D02%AC%7Dm%F9%3A%D4%F2%8B6%AE*%BF%5C%C2Ym~9g5%D0Y%95%17%7C%C8c%B0%7C%18%26%9CU%CD%13i%F7%AA%90%B3Z%7D%95%B4%C7%60%E6E%B5%BC%05%B4%FBY%95U%9E%DB%FD%1C%FC%E0%9F%83%7F%BE%17%7DkjMU%E3%03%AC%7CWj%DF%83%9An%BCG%AE%F1%95%96yQ%0Dq%5Dy%00%3Et%B5'%FC6%5DS%95pV%95%01%81%FF'%07%00%00%00%00%00%00%00%00%00%F8x%C7%F0%BE%9COp%5D%C9%7C%AD%E7%E6%EBV%FB%1E%E0(%07%E5%AC%C6%3A%ABi%9C%8F%C6%0E9%AB%C0'%D2%8E%9F%F99%D0E%B5%99%14%F5%0D%CD%7F%24%C6%DEH%B8%E9rV%DFs%DB%D0%F7%00k%FE%1D%84%84%83J%B8%E3%BA%FB%EF%20%84%1C%D7%AD%B0%8E%D7U%C8Y%05%1E%D4t%EF%AD%95Q%BF8w%BF%E9%0A%BF%EB%03%00%00%00%00%00%00%00%00%00%B8vJ%8E%BB%F5%B1u%8Cx%80%E1o%5E%CA9%AB%CB%CB%8E%03%DF%1D%B7T%25%9C%D5(%EFJM8%AB%CC'%D2%B2*%A4s%E7c6%FB%3E%FA%A2%1E%80~%0E%3E%DA%10x%5D%95Uig%15u%15%ED%7C%14%B6%87%A1%3B%FCo8%A8%D8o%D3%ADO%01%EDx%83%1A~%1B%9FpP%A3%DC%C6'%9C%95gK%00%00%00%00%00%00%00%00%00%20%D9%C9%11%D0%C0%40%AF%3F%EE%EE%92%94%D6%16X%B5%BCMH%15%2F%BF%D4%A7%C87%F1%8E%F2%81%AE%AAvzr%DA2%ABV%17%7C%E63%83%E7I%DC%C6%0Bs%1B%EF6%1E%00%00%00%00%00%00%00%00%00%80cr%9CW%FF%7F%C6%01%0E%F1%CE%A5%84%B3%CA%BC%E0%CB%AA%84%CE%F9%BF)%EC%13%08WU%AE%AB%B1%AE%2BO%EC%8E%CBYe%FE%8CN%ABr%5Dy%60~%CFA%0D%F4%AE%D4%BE%C75%CA%EDVB%EA(%B7%F1%09g%E5%D9%12%00%00%00%00%00%00%00%00%00H%F6%EB%13S%E7y%5E%5E%FB%98%F0%22%D1%B2'%A7%F0%92%B1%BC%24z3%AC%7Dm%60%D5%92%B4%7CEUO%5E%F0%AA*%3BU%B9%AE%3E%A0j%94%07%A0%C7%A0%AB%FD%B5%3F%A0%F7%03T%3Dy%D7%F7%D6%D4%C0%AAU%D2%E6%DFt%3F%A8%CC%AA%F2%86%B9%D7%F5%1F%18%E6%01%F8%CC%D5%9E%F0%F3z%88%AA%90%EF%20%00%00%00%00%00%00%00%00%00%C0%A6%D3%EA%CFi%AFb%2C%7BB%0A%2B%C3%1A%D7%06V%D5%07%A8r%5D%3D%D9%A6%CAu%F5%25%CF%A2%99%97zNX%60%95%AB%5DUZ%D5%FBR%03%AB%1C%D4k%9F%3F%BB%5C%FF%81a%AE%AB'%7F%F3%EA%FE%F3z%94%AA%D8%DF%5B%01%00%00%00%00%00%00%00%00%00%8E%FB%F3%F2%B1%1B%8DWU%AAT%A9R%A5J%95*U%AAT%A9R%A5J%95*U%AAT%A9R%A5J%95*U%AAT%A9R%A5J%95*U%AAT%A9R%A5J%95*U%AAT%A9R%A5J%95*U%AAT%A9R%A5J%95*UiU%C7%BBe%E7%F3%B9%CB%AAJ%95*U%AAT%A9R%A5J%95*U%AAT%A9R%A5J%95*U%AAT%A9R%A5J%95*U%AAT%A9R%A5J%95*U%AAT%A9R%A5J%95*U%AAT%A9R%A5J%95*U%AAT%A9R%A5*%AAj%FD%C6%D4%5Eo%90%B5Z%ADV%AB%D5j%B5Z%ADV%AB%D5j%B5Z%ADV%AB%D5j%B5Z%ADV%AB%D5j%B5Z%ADV%AB%D5j%B5Z%ADV%AB%D5j%B5Z%ADV%AB%D5j%B5%86%AF%1B%9F%98%DA%EBm%BBV%AB%D5j%B5Z%ADV%AB%D5j%B5Z%ADV%AB%D5j%B5Z%ADV%AB%D5j%B5Z%ADV%AB%D5j%B5Z%ADV%AB%D5j%B5Z%ADV%AB%D5j%B5Z%AD%D6%E4%F58%01%00%00%00%00%00%00%00%00%00%00%00%00%00%40%85%7F%02%0C%008%C2%D0H%16j%8FX%00%00%00%00IEND%AEB%60%82") repeat-x !important;
    border-top: 1px solid #BBBBBB !important;
    border-right: 1px dashed #BBBBBB !important;
    border-bottom: 1px solid #000000 !important;
}

.firebugRulerV {
    top: 0 !important;
    left: -15px !important;
    width: 14px !important;
    height: 100% !important;
    background: url("data:image/png,%89PNG%0D%0A%1A%0A%00%00%00%0DIHDR%00%00%00%0E%00%00%13%88%08%02%00%00%00%0E%F5%CB%10%00%00%00%04gAMA%00%00%D6%D8%D4OX2%00%00%00%19tEXtSoftware%00Adobe%20ImageReadyq%C9e%3C%00%00%06~IDATx%DA%EC%DD%D1v%A20%14%40Qt%F1%FF%FF%E4%97%D9%07%3BT%19%92%DC%40(%90%EEy%9A5%CB%B6%E8%F6%9Ac%A4%CC0%84%FF%DC%9E%CF%E7%E3%F1%88%DE4%F8%5D%C7%9F%2F%BA%DD%5E%7FI%7D%F18%DDn%BA%C5%FB%DF%97%BFk%F2%10%FF%FD%B4%F2M%A7%FB%FD%FD%B3%22%07p%8F%3F%AE%E3%F4S%8A%8F%40%EEq%9D%BE8D%F0%0EY%A1Uq%B7%EA%1F%81%88V%E8X%3F%B4%CEy%B7h%D1%A2E%EBohU%FC%D9%AF2fO%8BBeD%BE%F7X%0C%97%A4%D6b7%2Ck%A5%12%E3%9B%60v%B7r%C7%1AI%8C%BD%2B%23r%00c0%B2v%9B%AD%CA%26%0C%1Ek%05A%FD%93%D0%2B%A1u%8B%16-%95q%5Ce%DCSO%8E%E4M%23%8B%F7%C2%FE%40%BB%BD%8C%FC%8A%B5V%EBu%40%F9%3B%A72%FA%AE%8C%D4%01%CC%B5%DA%13%9CB%AB%E2I%18%24%B0n%A9%0CZ*Ce%9C%A22%8E%D8NJ%1E%EB%FF%8F%AE%CAP%19*%C3%BAEKe%AC%D1%AAX%8C*%DEH%8F%C5W%A1e%AD%D4%B7%5C%5B%19%C5%DB%0D%EF%9F%19%1D%7B%5E%86%BD%0C%95%A12%AC%5B*%83%96%CAP%19%F62T%86%CAP%19*%83%96%CA%B8Xe%BC%FE)T%19%A1%17xg%7F%DA%CBP%19*%C3%BA%A52T%86%CAP%19%F62T%86%CA%B0n%A9%0CZ%1DV%C6%3D%F3%FCH%DE%B4%B8~%7F%5CZc%F1%D6%1F%AF%84%F9%0F6%E6%EBVt9%0E~%BEr%AF%23%B0%97%A12T%86%CAP%19%B4T%86%CA%B8Re%D8%CBP%19*%C3%BA%A52huX%19%AE%CA%E5%BC%0C%7B%19*CeX%B7h%A9%0C%95%E1%BC%0C%7B%19*CeX%B7T%06%AD%CB%5E%95%2B%BF.%8F%C5%97%D5%E4%7B%EE%82%D6%FB%CF-%9C%FD%B9%CF%3By%7B%19%F62T%86%CA%B0n%D1R%19*%A3%D3%CA%B0%97%A12T%86uKe%D0%EA%B02*%3F1%99%5DB%2B%A4%B5%F8%3A%7C%BA%2B%8Co%7D%5C%EDe%A8%0C%95a%DDR%19%B4T%C66%82fA%B2%ED%DA%9FC%FC%17GZ%06%C9%E1%B3%E5%2C%1A%9FoiB%EB%96%CA%A0%D5qe4%7B%7D%FD%85%F7%5B%ED_%E0s%07%F0k%951%ECr%0D%B5C%D7-g%D1%A8%0C%EB%96%CA%A0%A52T%C6)*%C3%5E%86%CAP%19%D6-%95A%EB*%95q%F8%BB%E3%F9%AB%F6%E21%ACZ%B7%22%B7%9B%3F%02%85%CB%A2%5B%B7%BA%5E%B7%9C%97%E1%BC%0C%EB%16-%95%A12z%AC%0C%BFc%A22T%86uKe%D0%EA%B02V%DD%AD%8A%2B%8CWhe%5E%AF%CF%F5%3B%26%CE%CBh%5C%19%CE%CB%B0%F3%A4%095%A1%CAP%19*Ce%A8%0C%3BO*Ce%A8%0C%95%A12%3A%AD%8C%0A%82%7B%F0v%1F%2FD%A9%5B%9F%EE%EA%26%AF%03%CA%DF9%7B%19*Ce%A8%0C%95%A12T%86%CA%B8Ze%D8%CBP%19*Ce%A8%0C%95%D1ae%EC%F7%89I%E1%B4%D7M%D7P%8BjU%5C%BB%3E%F2%20%D8%CBP%19*Ce%A8%0C%95%A12T%C6%D5*%C3%5E%86%CAP%19*Ce%B4O%07%7B%F0W%7Bw%1C%7C%1A%8C%B3%3B%D1%EE%AA%5C%D6-%EBV%83%80%5E%D0%CA%10%5CU%2BD%E07YU%86%CAP%19*%E3%9A%95%91%D9%A0%C8%AD%5B%EDv%9E%82%FFKOee%E4%8FUe%A8%0C%95%A12T%C6%1F%A9%8C%C8%3D%5B%A5%15%FD%14%22r%E7B%9F%17l%F8%BF%ED%EAf%2B%7F%CF%ECe%D8%CBP%19*Ce%A8%0C%95%E1%93~%7B%19%F62T%86%CAP%19*Ce%A8%0C%E7%13%DA%CBP%19*Ce%A8%0CZf%8B%16-Z%B4h%D1R%19f%8B%16-Z%B4h%D1R%19%B4%CC%16-Z%B4h%D1R%19%B4%CC%16-Z%B4h%D1%A2%A52%CC%16-Z%B4h%D1%A2%A52h%99-Z%B4h%D1%A2%A52h%99-Z%B4h%D1%A2EKe%98-Z%B4h%D1%A2EKe%D02%5B%B4h%D1%A2EKe%D02%5B%B4h%D1%A2E%8B%96%CA0%5B%B4h%D1%A2E%8B%96%CA%A0e%B6h%D1%A2E%8B%96%CA%A0e%B6h%D1%A2E%8B%16-%95a%B6h%D1%A2E%8B%16-%95A%CBl%D1%A2E%8B%16-%95A%CBl%D1%A2E%8B%16-Z*%C3l%D1%A2E%8B%16-Z*%83%96%D9%A2E%8B%16-Z*%83%96%D9%A2E%8B%16-Z%B4T%86%D9%A2E%8B%16-Z%B4T%06-%B3E%8B%16-Z%B4T%06-%B3E%8B%16-Z%B4h%A9%0C%B3E%8B%16-Z%B4h%A9%0CZf%8B%16-Z%B4h%A9%0CZf%8B%16-Z%B4h%D1R%19f%8B%16-Z%B4h%D1R%19%B4%CC%16-Z%B4h%D1R%19%B4%CC%16-Z%B4h%D1%A2%A52%CC%16-Z%B4h%D1%A2%A52h%99-Z%B4h%D1%A2%A52h%99-Z%B4h%D1%A2EKe%98-Z%B4h%D1%A2EKe%D02%5B%B4h%D1%A2EKe%D02%5B%B4h%D1%A2E%8B%96%CA0%5B%B4h%D1%A2E%8B%96%CA%A0e%B6h%D1%A2E%8B%96%CA%A0e%B6h%D1%A2E%8B%16-%95a%B6h%D1%A2E%8B%16-%95A%CBl%D1%A2E%8B%16-%95A%CBl%D1%A2E%8B%16-Z*%C3l%D1%A2E%8B%16-Z*%83%96%D9%A2E%8B%16-Z*%83%96%D9%A2E%8B%16-Z%B4T%86%D9%A2E%8B%16-Z%B4T%06-%B3E%8B%16-Z%B4T%06-%B3E%8B%16-Z%B4h%A9%0C%B3E%8B%16-Z%B4h%A9%0CZf%8B%16-Z%B4h%A9%0CZf%8B%16-Z%B4h%D1R%19f%8B%16-Z%B4h%D1R%19%B4%CC%16-Z%B4h%D1R%19%B4%CC%16-Z%B4h%D1%A2%A52%CC%16-Z%B4h%D1%A2%A52h%99-Z%B4h%D1%A2%A52h%99-Z%B4h%D1%A2EKe%98-Z%B4h%D1%A2EKe%D02%5B%B4h%D1%A2EKe%D02%5B%B4h%D1%A2E%8B%96%CA0%5B%B4h%D1%A2E%8B%96%CA%A0e%B6h%D1%A2E%8B%96%CA%A0e%B6h%D1%A2E%8B%16-%95a%B6h%D1%A2E%8B%16-%95A%CBl%D1%A2E%8B%16-%95A%CBl%D1%A2E%8B%16-Z*%C3l%D1%A2E%8B%16-Z*%83%96%D9%A2E%8B%16-Z*%83%96%D9%A2E%8B%16-Z%B4T%86%D9%A2E%8B%16-Z%B4T%06-%B3E%8B%16-Z%B4%AE%A4%F5%25%C0%00%DE%BF%5C'%0F%DA%B8q%00%00%00%00IEND%AEB%60%82") repeat-y !important;
    border-left: 1px solid #BBBBBB !important;
    border-right: 1px solid #000000 !important;
    border-bottom: 1px dashed #BBBBBB !important;
}

.overflowRulerX &gt; .firebugRulerV {
    left: 0 !important;
}

.overflowRulerY &gt; .firebugRulerH {
    top: 0 !important;
}

/* * * * * * * * * * * * * * * * * * * * * * * * * * * * * * * * * * * * * * * * * * * * * * * * */
.fbProxyElement {
    position: fixed !important;
    pointer-events: auto !important;
}
</style></svg>