<?xml version="1.0" encoding="utf-8"?>
<!-- Generator: Adobe Illustrator 14.0.0, SVG Export Plug-In . SVG Version: 6.00 Build 43363)  -->
<!DOCTYPE svg PUBLIC "-//W3C//DTD SVG 1.1//EN" "http://www.w3.org/Graphics/SVG/1.1/DTD/svg11.dtd">
<svg version="1.1" id="Layer_1" xmlns="http://www.w3.org/2000/svg" xmlns:xlink="http://www.w3.org/1999/xlink" x="0px" y="0px"
	 width="457px" height="436.5px" viewBox="57.5 12.5 457 436.5" enable-background="new 57.5 12.5 457 436.5" xml:space="preserve">
<path fill="#333" stroke="#333" d="M342.413,320.368c-11.056-1.759-11.308-32.157-11.308-32.157s32.484-32.158,39.564-75.401
	c19.045,0,30.809-45.973,11.761-62.148C383.226,133.635,406.911,17,287,17s-96.225,116.635-95.432,133.662
	c-19.047,16.175-7.285,62.148,11.761,62.148c7.079,43.243,39.564,75.401,39.564,75.401s-0.252,30.398-11.307,32.157
	C195.976,326.034,63,384.685,63,449h224h224C511,384.685,378.024,326.034,342.413,320.368z"/>
</svg>
